<svg xmlns="http://www.w3.org/2000/svg" width="1180" height="610" viewBox="0 0 1180 610" role="img" aria-label="GitHub profile banner for Krishna Kalyan Allampalli, AI and software engineering enthusiast">
  <defs>
    <linearGradient id="edge" x1="0" x2="1" y1="0" y2="1"><stop stop-color="#22d3ee"/><stop offset=".52" stop-color="#7c3aed"/><stop offset="1" stop-color="#10b981"/></linearGradient>
    <radialGradient id="bg" cx="78%" cy="12%"><stop stop-color="#172554" stop-opacity=".75"/><stop offset=".5" stop-color="#07111f"/><stop offset="1" stop-color="#030712"/></radialGradient>
    <linearGradient id="shine" x1="0" x2="1"><stop stop-color="#fff" stop-opacity="0"/><stop offset=".5" stop-color="#fff" stop-opacity=".16"/><stop offset="1" stop-color="#fff" stop-opacity="0"/></linearGradient>
    <filter id="glow"><feGaussianBlur stdDeviation="4" result="b"/><feMerge><feMergeNode in="b"/><feMergeNode in="SourceGraphic"/></feMerge></filter>
    <pattern id="grid" width="28" height="28" patternUnits="userSpaceOnUse"><path d="M28 0H0V28" fill="none" stroke="#38bdf8" stroke-opacity=".055"/></pattern>
    <clipPath id="clip"><rect x="28" y="28" width="1124" height="554" rx="22"/></clipPath>
  </defs>
  <g clip-path="url(#clip)">
    <rect x="28" y="28" width="1124" height="554" rx="22" fill="url(#bg)"/>
    <rect x="28" y="28" width="1124" height="554" fill="url(#grid)"/>
    <circle cx="1070" cy="96" r="180" fill="#7c3aed" opacity=".07"><animate attributeName="r" values="180;202;180" dur="8s" repeatCount="indefinite"/></circle>
    <path d="M52 80H1128" stroke="#94a3b8" stroke-opacity=".22"/>
    <circle cx="60" cy="55" r="5" fill="#fb7185"/><circle cx="78" cy="55" r="5" fill="#fbbf24"/><circle cx="96" cy="55" r="5" fill="#34d399"/>
    <text x="122" y="60" fill="#94a3b8" font-size="12" font-family="ui-monospace,Consolas,monospace">kalyan@profile: ~/identity</text>
    <text x="1056" y="60" fill="#6ee7b7" font-size="11" font-family="ui-monospace,Consolas,monospace">● ONLINE</text>

    <rect x="52" y="106" width="384" height="428" rx="16" fill="#0f172a" fill-opacity=".62" stroke="#38bdf8" stroke-opacity=".3"/>
    <text x="78" y="142" fill="#67e8f9" font-size="12" letter-spacing="2" font-family="ui-monospace,Consolas,monospace">VISUAL.MAP</text>
    <path d="M78 157H410" stroke="#38bdf8" stroke-opacity=".22"/>
    <g transform="translate(92 180)" font-family="ui-monospace,Consolas,monospace" font-size="11" letter-spacing="1.2" fill="#a5f3fc">
      <text x="60" y="0" opacity=".42">...........::+###+::...........</text>
      <text x="32" y="14" opacity=".52">.......:+#%%%%%%%%%%%#+:.......</text>
      <text x="20" y="28" opacity=".63">.....:*%%%%%%@@@@@%%%%%%*:.....</text>
      <text x="14" y="42" opacity=".75">....*%%%@@@#+++++#+#+#+#+@@@%%%*....</text>
      <text x="8" y="56" opacity=".86">...#%%@@@+:  .:::::.  :+@@@%%#...</text>
      <text x="4" y="70">..#%%@@+  .:+*#####*+:.  +@@%%#..</text>
      <text x="2" y="84">..%%@@: .+#@@@%%%%%@@@#+. :@@%%..</text>
      <text x="3" y="98">..%%@+ .#@@@#:.---.:#@@@#. +@%%..</text>
      <text x="5" y="112">..%%@: *@@@+ .#@.@#. +@@@* :@%%..</text>
      <text x="4" y="126">..%%@+ :@@@+ .#@.@#. +@@@: +@%%..</text>
      <text x="8" y="140">...%%@@: *@@@#.---.#@@@* :@@%%...</text>
      <text x="16" y="154">....*%%%+. +@@@@%%%@@@@+ .+%%%*....</text>
      <text x="28" y="168">......:+%%%#++*****++#%%%+:......</text>
      <text x="42" y="182">.........:+#%%%%%%%%%#+:.........</text>
      <text x="22" y="210" fill="#67e8f9">[ profile signal: active ]</text>
      <text x="38" y="234" fill="#c4b5fd">~/build $ learn · build · ship</text>
      <animateTransform attributeName="transform" type="translate" values="92 180;92 176;92 180" dur="5s" repeatCount="indefinite"/>
    </g>
    <rect x="52" y="552" width="384" height="1" fill="url(#edge)" opacity=".9"><animate attributeName="opacity" values=".35;.95;.35" dur="3s" repeatCount="indefinite"/></rect>

    <rect x="464" y="106" width="664" height="428" rx="16" fill="#0f172a" fill-opacity=".58" stroke="#c4b5fd" stroke-opacity=".28"/>
    <path d="M465 107H1127" stroke="url(#edge)" stroke-width="2" opacity=".75"/>
    <text x="494" y="143" fill="#67e8f9" font-size="12" letter-spacing="2" font-family="ui-monospace,Consolas,monospace">SYSTEM.INFO</text>
    <text x="980" y="143" fill="#64748b" font-size="11" font-family="ui-monospace,Consolas,monospace">./profile.sh</text>
    <path d="M494 158H1098" stroke="#94a3b8" stroke-opacity=".2"/>
    <g font-family="ui-monospace,Consolas,monospace">
      <text x="494" y="205" fill="#67e8f9" font-size="12">&gt; NAME</text><text x="624" y="205" fill="#f8fafc" font-size="22" font-weight="700">Krishna Kalyan Allampalli</text>
      <text x="494" y="243" fill="#67e8f9" font-size="12">&gt; ROLE</text><text x="624" y="243" fill="#c4b5fd" font-size="15">AI &amp; Software Engineering Enthusiast</text>
      <text x="494" y="281" fill="#67e8f9" font-size="12">&gt; EDUCATION</text><text x="624" y="281" fill="#e2e8f0" font-size="14">CSE (Data Science) · SRM Institute of Science and Technology</text>
      <text x="494" y="319" fill="#67e8f9" font-size="12">&gt; FOCUS</text><text x="624" y="319" fill="#e2e8f0" font-size="14">AI systems · NLP · LLMs · full-stack web</text>
      <text x="494" y="357" fill="#67e8f9" font-size="12">&gt; BUILDING</text><text x="624" y="357" fill="#e2e8f0" font-size="14">Domain chatbots · social apps · reservation systems</text>
    </g>
    <text x="494" y="402" fill="#94a3b8" font-size="11" letter-spacing="1.5" font-family="ui-monospace,Consolas,monospace">SELECTED STACK</text>
    <g font-family="ui-monospace,Consolas,monospace" font-size="12">
      <g fill="#0b2334" stroke="#22d3ee" stroke-opacity=".45"><rect x="494" y="418" width="74" height="28" rx="8"/><rect x="578" y="418" width="65" height="28" rx="8"/><rect x="653" y="418" width="58" height="28" rx="8"/><rect x="721" y="418" width="65" height="28" rx="8"/><rect x="796" y="418" width="78" height="28" rx="8"/><rect x="884" y="418" width="79" height="28" rx="8"/></g>
      <g fill="#cffafe"><text x="507" y="437">Python</text><text x="590" y="437">React</text><text x="665" y="437">Node</text><text x="733" y="437">FastAPI</text><text x="808" y="437">MongoDB</text><text x="896" y="437">Docker</text></g>
    </g>
    <path d="M494 478H1098" stroke="#94a3b8" stroke-opacity=".16"/>
    <text x="494" y="505" fill="#94a3b8" font-size="12" font-family="ui-monospace,Consolas,monospace">github.com/Kalyan-23  ·  linkedin.com/in/allampalli-krishnakalyan</text>
    <rect x="430" y="28" width="180" height="554" fill="url(#shine)" opacity=".16"><animateTransform attributeName="transform" type="translate" values="-740 0;760 0" dur="9s" repeatCount="indefinite"/></rect>
  </g>
  <rect x="28" y="28" width="1124" height="554" rx="22" fill="none" stroke="url(#edge)" stroke-opacity=".7"/>
</svg>
