<svg xmlns="http://www.w3.org/2000/svg" width="1180" height="610" viewBox="0 0 1180 610" role="img" aria-label="GitHub profile banner for Krishna Kalyan Allampalli, AI and software engineering enthusiast">
  <defs>
    <linearGradient id="edge" x1="0" x2="1" y1="0" y2="1"><stop stop-color="#0891b2"/><stop offset=".5" stop-color="#6d28d9"/><stop offset="1" stop-color="#059669"/></linearGradient>
    <radialGradient id="bg" cx="78%" cy="10%"><stop stop-color="#dbeafe"/><stop offset=".55" stop-color="#f8fafc"/><stop offset="1" stop-color="#eef6ff"/></radialGradient>
    <pattern id="grid" width="28" height="28" patternUnits="userSpaceOnUse"><path d="M28 0H0V28" fill="none" stroke="#0284c7" stroke-opacity=".09"/></pattern>
    <clipPath id="clip"><rect x="28" y="28" width="1124" height="554" rx="22"/></clipPath>
  </defs>
  <g clip-path="url(#clip)">
    <rect x="28" y="28" width="1124" height="554" rx="22" fill="url(#bg)"/><rect x="28" y="28" width="1124" height="554" fill="url(#grid)"/>
    <circle cx="1060" cy="104" r="186" fill="#8b5cf6" opacity=".09"><animate attributeName="r" values="186;204;186" dur="8s" repeatCount="indefinite"/></circle>
    <path d="M52 80H1128" stroke="#64748b" stroke-opacity=".28"/><circle cx="60" cy="55" r="5" fill="#fb7185"/><circle cx="78" cy="55" r="5" fill="#fbbf24"/><circle cx="96" cy="55" r="5" fill="#34d399"/>
    <text x="122" y="60" fill="#475569" font-size="12" font-family="ui-monospace,Consolas,monospace">kalyan@profile: ~/identity</text><text x="1056" y="60" fill="#047857" font-size="11" font-family="ui-monospace,Consolas,monospace">● ONLINE</text>
    <rect x="52" y="106" width="384" height="428" rx="16" fill="#fff" fill-opacity=".68" stroke="#0891b2" stroke-opacity=".32"/>
    <text x="78" y="142" fill="#0e7490" font-size="12" letter-spacing="2" font-family="ui-monospace,Consolas,monospace">VISUAL.MAP</text><path d="M78 157H410" stroke="#0891b2" stroke-opacity=".25"/>
    <g transform="translate(92 180)" font-family="ui-monospace,Consolas,monospace" font-size="11" letter-spacing="1.2" fill="#0e7490">
      <text x="60" y="0" opacity=".42">...........::+###+::...........</text><text x="32" y="14" opacity=".52">.......:+#%%%%%%%%%%%#+:.......</text><text x="20" y="28" opacity=".63">.....:*%%%%%%@@@@@%%%%%%*:.....</text><text x="14" y="42" opacity=".75">....*%%%@@@#+++++#+#+#+#+@@@%%%*....</text><text x="8" y="56" opacity=".86">...#%%@@@+:  .:::::.  :+@@@%%#...</text><text x="4" y="70">..#%%@@+  .:+*#####*+:.  +@@%%#..</text><text x="2" y="84">..%%@@: .+#@@@%%%%%@@@#+. :@@%%..</text><text x="3" y="98">..%%@+ .#@@@#:.---.:#@@@#. +@%%..</text><text x="5" y="112">..%%@: *@@@+ .#@.@#. +@@@* :@%%..</text><text x="4" y="126">..%%@+ :@@@+ .#@.@#. +@@@: +@%%..</text><text x="8" y="140">...%%@@: *@@@#.---.#@@@* :@@%%...</text><text x="16" y="154">....*%%%+. +@@@@%%%@@@@+ .+%%%*....</text><text x="28" y="168">......:+%%%#++*****++#%%%+:......</text><text x="42" y="182">.........:+#%%%%%%%%%#+:.........</text><text x="22" y="210" fill="#0e7490">[ profile signal: active ]</text><text x="38" y="234" fill="#6d28d9">~/build $ learn · build · ship</text><animateTransform attributeName="transform" type="translate" values="92 180;92 176;92 180" dur="5s" repeatCount="indefinite"/>
    </g>
    <image href="./portrait.png" x="70" y="166" width="348" height="356" preserveAspectRatio="xMidYMid meet" opacity=".98"><animate attributeName="opacity" values=".78;1;.78" dur="5s" repeatCount="indefinite"/></image>
    <rect x="464" y="106" width="664" height="428" rx="16" fill="#fff" fill-opacity=".72" stroke="#6d28d9" stroke-opacity=".28"/><path d="M465 107H1127" stroke="url(#edge)" stroke-width="2"/>
    <text x="494" y="143" fill="#0e7490" font-size="12" letter-spacing="2" font-family="ui-monospace,Consolas,monospace">SYSTEM.INFO</text><text x="980" y="143" fill="#64748b" font-size="11" font-family="ui-monospace,Consolas,monospace">./profile.sh</text><path d="M494 158H1098" stroke="#64748b" stroke-opacity=".22"/>
    <g font-family="ui-monospace,Consolas,monospace"><text x="494" y="205" fill="#0e7490" font-size="12">&gt; NAME</text><text x="624" y="205" fill="#0f172a" font-size="22" font-weight="700">Krishna Kalyan Allampalli</text><text x="494" y="243" fill="#0e7490" font-size="12">&gt; ROLE</text><text x="624" y="243" fill="#6d28d9" font-size="15">AI &amp; Software Engineering Enthusiast</text><text x="494" y="281" fill="#0e7490" font-size="12">&gt; EDUCATION</text><text x="624" y="281" fill="#334155" font-size="14">CSE (Data Science) · SRM Institute of Science and Technology</text><text x="494" y="319" fill="#0e7490" font-size="12">&gt; FOCUS</text><text x="624" y="319" fill="#334155" font-size="14">AI systems · NLP · LLMs · full-stack web</text><text x="494" y="357" fill="#0e7490" font-size="12">&gt; BUILDING</text><text x="624" y="357" fill="#334155" font-size="14">Domain chatbots · social apps · reservation systems</text></g>
    <text x="494" y="402" fill="#64748b" font-size="11" letter-spacing="1.5" font-family="ui-monospace,Consolas,monospace">SELECTED STACK</text><g font-family="ui-monospace,Consolas,monospace" font-size="12"><g fill="#ecfeff" stroke="#0891b2" stroke-opacity=".48"><rect x="494" y="418" width="74" height="28" rx="8"/><rect x="578" y="418" width="65" height="28" rx="8"/><rect x="653" y="418" width="58" height="28" rx="8"/><rect x="721" y="418" width="65" height="28" rx="8"/><rect x="796" y="418" width="78" height="28" rx="8"/><rect x="884" y="418" width="79" height="28" rx="8"/></g><g fill="#155e75"><text x="507" y="437">Python</text><text x="590" y="437">React</text><text x="665" y="437">Node</text><text x="733" y="437">FastAPI</text><text x="808" y="437">MongoDB</text><text x="896" y="437">Docker</text></g></g>
    <path d="M494 478H1098" stroke="#64748b" stroke-opacity=".2"/><text x="494" y="505" fill="#475569" font-size="12" font-family="ui-monospace,Consolas,monospace">github.com/Kalyan-23  ·  linkedin.com/in/allampalli-krishnakalyan</text>
  </g><rect x="28" y="28" width="1124" height="554" rx="22" fill="none" stroke="url(#edge)" stroke-opacity=".72"/>
</svg>
